# xmcd
# 
# Track frame offsets:
#     150
#     30079
#     52348
#     70024
#     90708
#     118848
#     137794
#     178622
#     199594
#     218567
#     247111
#     270055
#     290327
#     312747
# 
# Disc length: 4481
# 
# Revision: 2
# Processed by: cddbd v1.5.2PL0 Copyright (c) Steve Scherf et al.
# Submitted via: fre:ac v1.0.31
# 
DISCID=cc117f0e
DTITLE=The Moody Blues - Timeless Flight Disc 4
DYEAR=2013
DGENRE=Rock/Pop
TTITLE0=I Know You're Out There Somewhere
TTITLE1=Lean On Me (Tonight)
TTITLE2=Say It With Love
TTITLE3=Highway
TTITLE4=New Horizons
TTITLE5=Emily's Song
TTITLE6=Legend of a Mind
TTITLE7=This is the Moment
TTITLE8=Eternity Road
TTITLE9=Question
TTITLE10=English Sunset
TTITLE11=Strange Times
TTITLE12=The Swallow
TTITLE13=December Snow
EXTD=
EXTT0=
EXTT1=
EXTT2=
EXTT3=
EXTT4=
EXTT5=
EXTT6=
EXTT7=
EXTT8=
EXTT9=
EXTT10=
EXTT11=
EXTT12=
EXTT13=
PLAYORDER=
